<svg width="22" height="23" fill="none" xmlns="http://www.w3.org/2000/svg"><path d="M16.231 11.27a.915.915 0 00-1.296 0l-1.46 1.462c-.678-.202-1.942-.66-2.744-1.461-.8-.801-1.26-2.065-1.46-2.743l1.46-1.461a.915.915 0 000-1.296L7.065 2.104a.916.916 0 00-1.296 0L3.283 4.59a1.832 1.832 0 00-.538 1.316c.022 1.305.367 5.839 3.94 9.412 3.573 3.573 8.107 3.918 9.414 3.94h.025c.484 0 .942-.19 1.288-.537l2.486-2.486a.915.915 0 000-1.296l-3.667-3.668zm-.116 6.154c-1.144-.02-5.058-.327-8.134-3.403-3.085-3.086-3.384-7.014-3.402-8.135l1.838-1.838 2.37 2.371-1.185 1.185a.917.917 0 00-.25.836c.023.106.56 2.605 2.082 4.127 1.522 1.522 4.022 2.06 4.127 2.082a.909.909 0 00.836-.249l1.186-1.185 2.37 2.37-1.838 1.838z" fill="#B4B4B4"/></svg>