<svg width="46" height="46" fill="none" xmlns="http://www.w3.org/2000/svg"><path d="M23 .92C10.805.92.92 10.805.92 23c0 12.194 9.885 22.08 22.08 22.08 12.194 0 22.08-9.886 22.08-22.08C45.08 10.805 35.194.92 23 .92zm8.49 24.91s1.953 1.928 2.434 2.822c.014.019.02.037.025.046.196.33.242.584.145.775-.16.318-.713.474-.901.488h-3.45c-.24 0-.741-.062-1.348-.48-.467-.327-.927-.863-1.376-1.385-.669-.778-1.249-1.45-1.833-1.45a.702.702 0 00-.218.035c-.442.143-1.008.773-1.008 2.452 0 .524-.414.826-.706.826h-1.58c-.538 0-3.342-.189-5.826-2.809-3.04-3.208-5.777-9.643-5.8-9.703-.173-.417.184-.64.572-.64h3.485c.464 0 .616.283.722.534.124.292.58 1.454 1.327 2.76 1.212 2.13 1.955 2.994 2.55 2.994a.69.69 0 00.32-.082c.778-.433.633-3.204.599-3.78 0-.107-.003-1.239-.4-1.782-.286-.393-.771-.543-1.066-.598a1.28 1.28 0 01.458-.388c.534-.267 1.495-.306 2.45-.306h.53c1.036.014 1.303.08 1.678.174.759.182.775.672.708 2.349-.02.476-.041 1.014-.041 1.649 0 .138-.007.285-.007.441-.023.854-.05 1.822.552 2.22.078.05.17.076.262.076.21 0 .84 0 2.546-2.928.526-.942.984-1.922 1.369-2.93.034-.06.135-.244.255-.315a.612.612 0 01.285-.067h4.096c.447 0 .752.067.81.24.101.273-.019 1.108-1.888 3.64l-.835 1.102c-1.695 2.222-1.695 2.334.105 4.02z"/></svg>