<svg width="20" height="21" fill="none" xmlns="http://www.w3.org/2000/svg"><g clip-path="url(#clip0)"><path d="M12.838.113a3.18 3.18 0 00-1.815.39c-.785.418-1.342 1.061-1.596 1.898v.055l-.03.2-.11-.2-.28-.5C8.562 1.259 8.005.839 7.306.644 6.693.506 6.188.562 5.658.846c-.586.36-.921.92-1.061 1.702-.14.81 0 1.592.42 2.373l.195.28-.674-.221c-.837-.2-1.618-.088-2.403.332C1.328 5.729.823 6.314.492 7.129c-.31.78-.28 1.537.11 2.232.166.31.42.557.641.727.336.335.755.53 1.257.615l.195.052-.417.368c-.393.332-.615.752-.755 1.168a1.85 1.85 0 00.195 1.48c.143.226.28.42.502.56.225.196.505.336.84.366a3.592 3.592 0 001.953-.085l-.502.837-.14.365c-.28.895-.195 1.672.225 2.483.195.31.417.59.64.84.333.305.756.5 1.26.64.838.225 1.674.2 2.48-.22.786-.42 1.286-1.095 1.54-1.93l.027-.166c.53.585 1.032.976 1.591 1.116.56.17 1.117.143 1.622-.195.475-.277.81-.755.98-1.341.14-.616.14-1.227 0-1.927.277.195.557.335.892.42.895.28 1.677.25 2.458-.166.755-.42 1.257-1.09 1.51-1.957.22-.837.166-1.647-.25-2.432l-.143-.225c-.222-.335-.446-.67-.782-.892-.28-.195-.615-.335-.921-.475.866-.42 1.48-1.005 1.758-1.761.199-.615.143-1.116-.14-1.621V5.95c-.335-.557-.778-.922-1.478-1.117-.42-.082-.892-.085-1.312-.056l-.925.196.31-.697c.28-.895.195-1.76-.28-2.572l-.082-.143C14.931.864 14.316.444 13.48.224a3.694 3.694 0 00-.641-.111zm-.475 1.179c.27-.026.54.01.808.107.585.14 1.005.446 1.255.92v.004c.14.277.222.613.222.977l-.082.615c-.11.306-.25.586-.42.837l-2.512 3.073c-.25-.196-.53-.336-.81-.476l-.28-3.157-.027-1.116.026-.28c.14-.557.53-.977 1.033-1.257.242-.136.51-.22.787-.247zm-5.735.449c.11-.007.23.022.341.078.502.14.922.5 1.257 1.2.14.28.28.557.335.892l.56 3.298-.42.14L6.214 4.64l-.14-.28c-.224-.501-.361-.976-.305-1.481.025-.5.222-.837.557-1.032a.494.494 0 01.299-.107h.003zm10.107 4.192c.127 0 .248.007.374.02.476.058.811.28.977.618l.115.358-.056.28c-.195.505-.615.895-1.315 1.202-.277.14-.586.195-.917.25l-3.438.42-.056-.195-.055-.085.111-.14 2.822-2.347.335-.137v-.003a2.746 2.746 0 011.107-.241h-.004zm-12.884.154c.133.007.27.025.41.062v.003l.755.302 2.458 1.79c-.225.28-.362.56-.446.838l-4.024.504-.277-.055c-.504-.085-.84-.31-1.064-.727-.225-.42-.222-.835-.055-1.255.195-.531.56-.951 1.086-1.175.379-.208.756-.31 1.156-.287zm5.967 2.239c.505 0 .98.199 1.285.505.395.39.56.81.56 1.315 0 .5-.165.976-.56 1.308-.36.365-.78.56-1.285.56-.528 0-.974-.195-1.309-.56a1.754 1.754 0 01-.56-1.309c0-.504.195-.924.56-1.314.357-.33.826-.511 1.312-.505h-.003zm7.011 2.151l.28.03c.42.14.815.39 1.035.807.28.31.42.73.42 1.205l-.084.557c-.14.56-.476.976-.95 1.2-.501.28-1.006.336-1.563.14a1.36 1.36 0 01-.755-.445l-2.933-2.432.195-.417.085-.338 3.157-.277 1.117-.03h-.004zm-5.527 2.042l1.172 1.198.726.895.14.28c.25.475.39.922.332 1.452-.052.502-.22.865-.557 1.005-.195.14-.42.14-.64.11-.531-.136-.951-.556-1.258-1.226l-.335-.922-.42-2.432.472-.165.365-.195h.003zm-3.018.055c.277.14.557.28.866.306.057 1.017.15 2.032.277 3.043v1.12l-.026.277c-.198.505-.533.925-1.035 1.145-.5.28-1.032.336-1.537.196-.56-.137-.976-.476-1.2-.922-.14-.28-.255-.615-.255-.95l.144-.642c.055-.28.195-.556.42-.78l2.346-2.793z"/></g><defs><clipPath id="clip0"><path transform="translate(0 .002)" d="M0 0h20v20H0z"/></clipPath></defs></svg>