<svg width="19" height="20" fill="none" xmlns="http://www.w3.org/2000/svg"><path d="M9.083 1.586c-4.14 0-7.5 3.36-7.5 7.5 0 4.14 3.36 7.5 7.5 7.5h3.75v-1.5h-3.75c-3.255 0-6-2.745-6-6s2.745-6 6-6 6 2.745 6 6v1.072c0 .593-.532 1.178-1.125 1.178-.592 0-1.125-.585-1.125-1.178V9.086c0-2.07-1.68-3.75-3.75-3.75-2.07 0-3.75 1.68-3.75 3.75a3.751 3.751 0 006.405 2.647c.488.668 1.328 1.103 2.22 1.103 1.478 0 2.625-1.2 2.625-2.678V9.086c0-4.14-3.36-7.5-7.5-7.5zm0 9.75a2.247 2.247 0 01-2.25-2.25 2.247 2.247 0 012.25-2.25 2.247 2.247 0 012.25 2.25 2.247 2.247 0 01-2.25 2.25z" fill="#fff"/></svg>