<svg width="45" height="45" fill="none" xmlns="http://www.w3.org/2000/svg"><path d="M22.5.188C10.178.188.187 10.178.187 22.5c0 12.322 9.991 22.313 22.313 22.313S44.813 34.822 44.813 22.5 34.822.187 22.5.187zm10.723 16.819c.015.234.015.478.015.717 0 7.311-5.568 15.733-15.743 15.733-3.138 0-6.047-.911-8.497-2.48.448.05.877.07 1.335.07 2.59 0 4.97-.877 6.868-2.361a5.533 5.533 0 01-5.17-3.835c.852.124 1.619.124 2.495-.1a5.529 5.529 0 01-4.427-5.428v-.07a5.536 5.536 0 002.495.702 5.535 5.535 0 01-2.465-4.602c0-1.03.269-1.972.752-2.789a15.703 15.703 0 0011.405 5.782c-.782-3.76 2.027-6.803 5.404-6.803a5.52 5.52 0 014.039 1.743 10.924 10.924 0 003.511-1.33A5.505 5.505 0 0132.81 15a10.94 10.94 0 003.187-.861 11.592 11.592 0 01-2.774 2.868z"/></svg>