<svg width="46" height="46" fill="none" xmlns="http://www.w3.org/2000/svg"><path d="M45.532 22.942C45.492 10.54 35.422.5 23.018.5 10.61.5.543 10.54.502 22.942L.5 22.883v.252l.002-.052c.039 12.405 10.105 22.449 22.516 22.449 12.407 0 22.473-10.04 22.514-22.442l.002.059v-.266l-.002.059zm-28.65 10.312c-5.645 0-10.233-4.588-10.233-10.236 0-5.647 4.588-10.235 10.233-10.235 2.768 0 5.08 1.015 6.854 2.673l-2.914 2.824c-.731-.696-2.023-1.515-3.94-1.515-3.386 0-6.149 2.815-6.149 6.267 0 3.449 2.765 6.264 6.15 6.264 3.919 0 5.363-2.714 5.629-4.32h-5.634v-3.82h9.574c.148.643.258 1.246.258 2.096 0 5.844-3.92 10.002-9.828 10.002zm23.53-9.214H36.32v4.093h-3.069V24.04h-4.095v-3.07h4.095v-4.094h3.07v4.095h4.092v3.069z"/></svg>