<svg width="20" height="21" fill="none" xmlns="http://www.w3.org/2000/svg"><path d="M15.072 11.096c.08-.44.123-.889.123-1.338a7.345 7.345 0 00-2.162-5.217 7.338 7.338 0 00-2.346-1.58 7.42 7.42 0 00-4.268-.447 4.396 4.396 0 00-2.052-.512 4.34 4.34 0 00-3.088 1.28A4.34 4.34 0 000 6.37c0 .742.191 1.472.549 2.117a7.322 7.322 0 00.469 4.143 7.34 7.34 0 001.58 2.345 7.34 7.34 0 002.345 1.58 7.33 7.33 0 004.164.465 4.37 4.37 0 002.149.566 4.333 4.333 0 003.088-1.279 4.332 4.332 0 001.28-3.088 4.345 4.345 0 00-.552-2.123zm-7.226 3.182c-2.621 0-3.793-1.29-3.793-2.254 0-.496.365-.842.869-.842 1.121 0 .832 1.611 2.924 1.611 1.072 0 1.664-.582 1.664-1.177 0-.358-.176-.756-.883-.93l-2.332-.582c-1.877-.47-2.219-1.486-2.219-2.44 0-1.98 1.865-2.724 3.617-2.724 1.614 0 3.516.893 3.516 2.08 0 .51-.441.805-.945.805-.957 0-.782-1.325-2.71-1.325-.956 0-1.486.434-1.486 1.053 0 .62.756.817 1.412.967l1.727.383c1.89.422 2.37 1.525 2.37 2.564 0 1.608-1.237 2.81-3.731 2.81z" fill="#fff"/></svg>