<svg xmlns="http://www.w3.org/2000/svg" xmlns:xlink="http://www.w3.org/1999/xlink"><symbol id="icon-check" viewBox="0 0 16 13">
<path d="M16 1.36689L5.02857 13L0 7.66816L1.28914 6.30127L5.02857 10.2565L14.7109 0L16 1.36689Z" fill="white"/>
</symbol><symbol id="icon-fb" viewBox="0 0 46 46">
<path d="M22.9999 0.919922C10.8053 0.919922 0.919922 10.8053 0.919922 22.9999C0.919922 35.1945 10.8053 45.0799 22.9999 45.0799C35.1945 45.0799 45.0799 35.1945 45.0799 22.9999C45.0799 10.8053 35.1945 0.919922 22.9999 0.919922ZM28.2301 16.1781H24.9112C24.5179 16.1781 24.0809 16.6956 24.0809 17.3833V19.7799H28.2324L27.6045 23.1977H24.0809V33.458H20.164V23.1977H16.6105V19.7799H20.164V17.7697C20.164 14.8855 22.165 12.5418 24.9112 12.5418H28.2301V16.1781Z"/>
</symbol><symbol id="icon-google" viewBox="0 0 46 46">
<path d="M45.5316 22.9417C45.4911 10.5397 35.4224 0.500244 23.0181 0.500244C10.6094 0.500244 0.542872 10.5397 0.502372 22.9417L0.500122 22.8832V23.1352L0.502372 23.0835C0.540622 35.4877 10.6071 45.5317 23.0181 45.5317C35.4246 45.5317 45.4911 35.4922 45.5316 23.0902L45.5339 23.1487V23.0272V23.016V22.8832L45.5316 22.9417ZM16.8824 33.2535C11.2371 33.2535 6.64937 28.6657 6.64937 23.0182C6.64937 17.3707 11.2371 12.783 16.8824 12.783C19.6499 12.783 21.9629 13.7977 23.7359 15.456L20.8221 18.2797C20.0909 17.5845 18.7994 16.7655 16.8824 16.7655C13.4961 16.7655 10.7331 19.5802 10.7331 23.0317C10.7331 26.481 13.4984 29.2957 16.8824 29.2957C20.8019 29.2957 22.2464 26.5822 22.5119 24.9757H16.8779V21.1552H26.4516C26.6001 21.7987 26.7104 22.4017 26.7104 23.2522C26.7104 29.0955 22.7909 33.2535 16.8824 33.2535ZM40.4129 24.0397H36.3201V28.1325H33.2511V24.0397H29.1561V20.9707H33.2511V16.8757H36.3201V20.9707H40.4129V24.0397Z"/>
</symbol><symbol id="icon-plus" viewBox="0 0 25 26">
<path d="M11.7676 3.71338H13.2324C13.3626 3.71338 13.4277 3.77848 13.4277 3.90869V21.0962C13.4277 21.2264 13.3626 21.2915 13.2324 21.2915H11.7676C11.6374 21.2915 11.5723 21.2264 11.5723 21.0962V3.90869C11.5723 3.77848 11.6374 3.71338 11.7676 3.71338Z" fill="white"/>
<path d="M4.29688 11.5747H20.7031C20.8333 11.5747 20.8984 11.6398 20.8984 11.77V13.2349C20.8984 13.3651 20.8333 13.4302 20.7031 13.4302H4.29688C4.16667 13.4302 4.10156 13.3651 4.10156 13.2349V11.77C4.10156 11.6398 4.16667 11.5747 4.29688 11.5747Z" fill="white"/>
</symbol><symbol id="icon-twitter" viewBox="0 0 45 45">
<path d="M22.5 0.1875C10.1783 0.1875 0.1875 10.1783 0.1875 22.5C0.1875 34.8217 10.1783 44.8125 22.5 44.8125C34.8217 44.8125 44.8125 34.8217 44.8125 22.5C44.8125 10.1783 34.8217 0.1875 22.5 0.1875ZM33.2229 17.0065C33.2379 17.2406 33.2379 17.4847 33.2379 17.7237C33.2379 25.0351 27.6697 33.457 17.4946 33.457C14.3569 33.457 11.4483 32.5456 8.99795 30.9768C9.44619 31.0266 9.87451 31.0465 10.3327 31.0465C12.9226 31.0465 15.3032 30.1699 17.2008 28.6857C14.7703 28.6359 12.7283 27.0422 12.0311 24.8508C12.8827 24.9753 13.6497 24.9753 14.5263 24.7512C13.2748 24.4969 12.15 23.8172 11.3428 22.8276C10.5357 21.838 10.0961 20.5995 10.0986 19.3225V19.2527C10.8308 19.6661 11.6924 19.9201 12.5938 19.955C11.836 19.4499 11.2145 18.7657 10.7845 17.9629C10.3545 17.1602 10.1291 16.2637 10.1285 15.353C10.1285 14.3221 10.3975 13.3808 10.8806 12.564C12.2696 14.2739 14.003 15.6725 15.9679 16.6687C17.9329 17.6649 20.0855 18.2365 22.2858 18.3463C21.5039 14.586 24.3129 11.543 27.6896 11.543C29.2834 11.543 30.7178 12.2104 31.7288 13.2861C32.9789 13.0521 34.1742 12.5839 35.24 11.9563C34.8267 13.2363 33.9601 14.3171 32.8096 14.9994C33.9252 14.8799 35.001 14.5711 35.9971 14.1378C35.245 15.2435 34.3037 16.2246 33.2229 17.0065Z"/>
</symbol><symbol id="icon-vk" viewBox="0 0 46 46">
<path d="M22.9999 0.919922C10.8053 0.919922 0.919922 10.8053 0.919922 22.9999C0.919922 35.1945 10.8053 45.0799 22.9999 45.0799C35.1945 45.0799 45.0799 35.1945 45.0799 22.9999C45.0799 10.8053 35.1945 0.919922 22.9999 0.919922ZM31.4915 25.8312C31.4915 25.8312 33.4442 27.7586 33.9249 28.6533C33.9387 28.6717 33.9456 28.6901 33.9502 28.6993C34.1457 29.0282 34.1917 29.2835 34.0951 29.4744C33.9341 29.7918 33.3821 29.9482 33.1935 29.962H29.7435C29.5043 29.962 29.0029 29.8999 28.3957 29.4813C27.9288 29.1547 27.4688 28.6188 27.0203 28.0967C26.351 27.3193 25.7714 26.6477 25.1872 26.6477C25.113 26.6476 25.0393 26.6592 24.9687 26.6822C24.5271 26.8248 23.9613 27.455 23.9613 29.134C23.9613 29.6584 23.5473 29.9597 23.2552 29.9597H21.6751C21.1369 29.9597 18.3332 29.7711 15.8492 27.1514C12.8086 23.9429 10.0716 17.5075 10.0486 17.4477C9.87612 17.0314 10.2326 16.8083 10.6213 16.8083H14.1058C14.5704 16.8083 14.7222 17.0912 14.828 17.3419C14.9522 17.634 15.4076 18.7955 16.1551 20.1019C17.3672 22.2317 18.1101 23.0965 18.7058 23.0965C18.8175 23.0952 18.9272 23.0668 19.0255 23.0137C19.8029 22.5813 19.658 19.8098 19.6235 19.2348C19.6235 19.1267 19.6212 17.9951 19.2233 17.4523C18.9381 17.059 18.4528 16.9095 18.1584 16.8543C18.2776 16.6899 18.4346 16.5566 18.6161 16.4656C19.1497 16.1988 20.1111 16.1597 21.0656 16.1597H21.5969C22.6319 16.1735 22.8987 16.2402 23.2736 16.3345C24.0326 16.5162 24.0487 17.0061 23.982 18.6828C23.9613 19.1589 23.9406 19.6971 23.9406 20.3319C23.9406 20.4699 23.9337 20.6171 23.9337 20.7735C23.9107 21.6268 23.8831 22.5951 24.4857 22.993C24.5643 23.0423 24.6551 23.0686 24.7479 23.0689C24.9572 23.0689 25.5874 23.0689 27.294 20.141C27.8203 19.1986 28.2777 18.2193 28.6625 17.2108C28.697 17.151 28.7982 16.967 28.9178 16.8957C29.0061 16.8507 29.104 16.8278 29.203 16.829H33.2993C33.7455 16.829 34.0514 16.8957 34.1089 17.0682C34.2101 17.3419 34.0905 18.1768 32.2206 20.7091L31.3857 21.8108C29.6906 24.0326 29.6906 24.1453 31.4915 25.8312Z"/>
</symbol></svg>