<svg xmlns="http://www.w3.org/2000/svg" xmlns:xlink="http://www.w3.org/1999/xlink" xmlns:sketch="http://www.bohemiancoding.com/sketch/ns"><defs>
<clipPath id="clip0">
<rect width="20" height="20" transform="translate(0 0.00244141)"/>
</clipPath>
</defs><symbol id="icon-check" viewBox="0 0 16 13">
<path d="M16 1.36689L5.02857 13L0 7.66816L1.28914 6.30127L5.02857 10.2565L14.7109 0L16 1.36689Z" fill="white"/>
</symbol><symbol id="icon-email" viewBox="0 0 19 20">
<path d="M9.08337 1.58594C4.94337 1.58594 1.58337 4.94594 1.58337 9.08594C1.58337 13.2259 4.94337 16.5859 9.08337 16.5859H12.8334V15.0859H9.08337C5.82837 15.0859 3.08337 12.3409 3.08337 9.08594C3.08337 5.83094 5.82837 3.08594 9.08337 3.08594C12.3384 3.08594 15.0834 5.83094 15.0834 9.08594V10.1584C15.0834 10.7509 14.5509 11.3359 13.9584 11.3359C13.3659 11.3359 12.8334 10.7509 12.8334 10.1584V9.08594C12.8334 7.01594 11.1534 5.33594 9.08337 5.33594C7.01337 5.33594 5.33337 7.01594 5.33337 9.08594C5.33337 11.1559 7.01337 12.8359 9.08337 12.8359C10.1184 12.8359 11.0634 12.4159 11.7384 11.7334C12.2259 12.4009 13.0659 12.8359 13.9584 12.8359C15.4359 12.8359 16.5834 11.6359 16.5834 10.1584V9.08594C16.5834 4.94594 13.2234 1.58594 9.08337 1.58594ZM9.08337 11.3359C7.83837 11.3359 6.83337 10.3309 6.83337 9.08594C6.83337 7.84094 7.83837 6.83594 9.08337 6.83594C10.3284 6.83594 11.3334 7.84094 11.3334 9.08594C11.3334 10.3309 10.3284 11.3359 9.08337 11.3359Z"/>
</symbol><symbol id="icon-fb" viewBox="0 0 46 46">
<path d="M22.9999 0.919922C10.8053 0.919922 0.919922 10.8053 0.919922 22.9999C0.919922 35.1945 10.8053 45.0799 22.9999 45.0799C35.1945 45.0799 45.0799 35.1945 45.0799 22.9999C45.0799 10.8053 35.1945 0.919922 22.9999 0.919922ZM28.2301 16.1781H24.9112C24.5179 16.1781 24.0809 16.6956 24.0809 17.3833V19.7799H28.2324L27.6045 23.1977H24.0809V33.458H20.164V23.1977H16.6105V19.7799H20.164V17.7697C20.164 14.8855 22.165 12.5418 24.9112 12.5418H28.2301V16.1781Z"/>
</symbol><symbol id="icon-google" viewBox="0 0 46 46">
<path d="M45.5316 22.9417C45.4911 10.5397 35.4224 0.500244 23.0181 0.500244C10.6094 0.500244 0.542872 10.5397 0.502372 22.9417L0.500122 22.8832V23.1352L0.502372 23.0835C0.540622 35.4877 10.6071 45.5317 23.0181 45.5317C35.4246 45.5317 45.4911 35.4922 45.5316 23.0902L45.5339 23.1487V23.0272V23.016V22.8832L45.5316 22.9417ZM16.8824 33.2535C11.2371 33.2535 6.64937 28.6657 6.64937 23.0182C6.64937 17.3707 11.2371 12.783 16.8824 12.783C19.6499 12.783 21.9629 13.7977 23.7359 15.456L20.8221 18.2797C20.0909 17.5845 18.7994 16.7655 16.8824 16.7655C13.4961 16.7655 10.7331 19.5802 10.7331 23.0317C10.7331 26.481 13.4984 29.2957 16.8824 29.2957C20.8019 29.2957 22.2464 26.5822 22.5119 24.9757H16.8779V21.1552H26.4516C26.6001 21.7987 26.7104 22.4017 26.7104 23.2522C26.7104 29.0955 22.7909 33.2535 16.8824 33.2535ZM40.4129 24.0397H36.3201V28.1325H33.2511V24.0397H29.1561V20.9707H33.2511V16.8757H36.3201V20.9707H40.4129V24.0397Z"/>
</symbol><symbol id="icon-icq" viewBox="0 0 20 21">
<g clip-path="url(#clip0)">
<path d="M12.8382 0.113022C12.2063 0.0605218 11.6082 0.188022 11.0225 0.503647C10.2375 0.920522 9.68067 1.56427 9.42692 2.40115V2.45615L9.39754 2.65552L9.28754 2.45615L9.00754 1.95552C8.56067 1.25865 8.00442 0.838647 7.30504 0.643647C6.69254 0.506147 6.18817 0.561772 5.65754 0.845522C5.07192 1.20615 4.73692 1.76615 4.59692 2.54802C4.45692 3.35802 4.59692 4.1399 5.01692 4.92052L5.21192 5.20052L4.53755 4.9799C3.70067 4.78052 2.92004 4.89177 2.13504 5.31177C1.32817 5.72865 0.82317 6.31427 0.49192 7.12865C0.182545 7.90927 0.21192 8.66552 0.602545 9.36115C0.76817 9.67115 1.02254 9.91802 1.24317 10.088C1.57879 10.423 1.99817 10.618 2.50004 10.703L2.69504 10.7549L2.27817 11.123C1.88504 11.4549 1.66317 11.8749 1.52317 12.2911C1.45099 12.5379 1.43105 12.7971 1.46463 13.052C1.4982 13.3069 1.58455 13.5521 1.71817 13.7718C1.86129 13.9968 1.99817 14.1918 2.22004 14.3318C2.44504 14.5274 2.72504 14.6674 3.06004 14.6968C3.70642 14.8496 4.38252 14.8202 5.01317 14.6118L4.51129 15.4486L4.37129 15.8136C4.09129 16.7086 4.1763 17.4861 4.59629 18.2968C4.7913 18.6061 5.01317 18.8861 5.23692 19.1368C5.56942 19.4424 5.99192 19.6374 6.49692 19.7774C7.3338 20.0024 8.17004 19.9768 8.97692 19.5568C9.76192 19.1368 10.2625 18.4624 10.5169 17.6261L10.5425 17.4605C11.0732 18.0461 11.575 18.4374 12.1344 18.5774C12.6944 18.7468 13.2513 18.7205 13.7563 18.3824C14.2313 18.1055 14.5663 17.6268 14.7363 17.0405C14.8763 16.4255 14.8763 15.8136 14.7363 15.1136C15.0132 15.3086 15.2932 15.4486 15.6282 15.5336C16.5232 15.8136 17.305 15.7843 18.0857 15.368C18.8407 14.948 19.3425 14.2774 19.5963 13.4111C19.8169 12.5743 19.7619 11.7636 19.3457 10.9793L19.2025 10.7543C18.9807 10.4193 18.7569 10.0843 18.4207 9.8624C18.1413 9.6674 17.8057 9.5274 17.5 9.3874C18.3657 8.9674 18.9807 8.38177 19.2575 7.62552C19.4569 7.01052 19.4007 6.5099 19.1175 6.0049V5.9499C18.7825 5.39302 18.34 5.02802 17.64 4.83302C17.22 4.75115 16.7482 4.74802 16.3282 4.7774L15.4032 4.97302L15.7125 4.27615C15.9925 3.38115 15.9082 2.51552 15.4332 1.70427L15.3513 1.56115C14.9313 0.864272 14.3163 0.444272 13.4794 0.223647C13.2691 0.16794 13.0543 0.130921 12.8375 0.113022H12.8382ZM12.3632 1.29177C12.6332 1.26615 12.9032 1.30177 13.1707 1.39927C13.7563 1.53927 14.1763 1.8449 14.4263 2.3199V2.32302C14.5663 2.5999 14.6482 2.93552 14.6482 3.2999L14.5663 3.9149C14.4563 4.22052 14.3163 4.50052 14.1469 4.75177L11.6338 7.8249C11.3832 7.62927 11.1032 7.48927 10.8232 7.34927L10.5432 4.19177L10.5175 3.07615L10.5432 2.79615C10.6832 2.23927 11.0738 1.81927 11.5757 1.53927C11.8182 1.40318 12.0864 1.3189 12.3632 1.29177ZM6.62754 1.74052C6.73817 1.73365 6.85817 1.76302 6.96942 1.81865C7.47129 1.95865 7.89129 2.31927 8.22629 3.01927C8.36629 3.29927 8.50629 3.57615 8.56129 3.91115L9.12129 7.20865L8.70129 7.34865L6.21442 4.64052L6.07442 4.36052C5.85004 3.8599 5.71254 3.3849 5.76879 2.8799C5.79442 2.37927 5.99067 2.04302 6.32567 1.84802C6.41087 1.78014 6.51613 1.74235 6.62504 1.74052H6.62754ZM16.735 5.93302C16.8619 5.93302 16.9825 5.9399 17.1094 5.95302C17.585 6.01115 17.92 6.23302 18.0863 6.57115L18.2007 6.92865L18.145 7.20865C17.95 7.71365 17.53 8.10427 16.83 8.41052C16.5532 8.55052 16.2444 8.60552 15.9125 8.66115L12.475 9.08115L12.4194 8.88552L12.3644 8.80115L12.475 8.66115L15.2969 6.31365L15.6325 6.17677V6.17365C15.9808 6.01737 16.3577 5.93542 16.7394 5.93302H16.735ZM3.85067 6.08677C3.98379 6.09365 4.12067 6.1124 4.26067 6.14865V6.15177L5.01629 6.45427L7.47379 8.2449C7.24879 8.5249 7.11192 8.80427 7.02817 9.08177L3.0038 9.58615L2.72692 9.53115C2.22254 9.44615 1.88754 9.22115 1.66254 8.80427C1.43817 8.3849 1.44067 7.96865 1.60754 7.54865C1.80254 7.01802 2.16754 6.59802 2.69442 6.37365C3.07254 6.16552 3.45004 6.06365 3.85004 6.08677H3.85067ZM9.81754 8.32552C10.3225 8.32552 10.7975 8.5249 11.1032 8.83052C11.4975 9.22052 11.6632 9.64052 11.6632 10.1455C11.6632 10.6461 11.4975 11.1224 11.1032 11.4536C10.7425 11.8186 10.3225 12.0136 9.81754 12.0136C9.29004 12.0136 8.84442 11.8186 8.50942 11.4536C8.14442 11.1218 7.94942 10.6461 7.94942 10.1455C7.94942 9.64052 8.14442 9.22052 8.50942 8.83052C8.866 8.50056 9.3355 8.31982 9.82129 8.32552H9.81754ZM16.8294 10.4774L17.1094 10.5068C17.5294 10.6468 17.9238 10.8974 18.1444 11.3143C18.4244 11.6236 18.5644 12.0436 18.5644 12.5193L18.48 13.0761C18.34 13.6355 18.0044 14.0518 17.5294 14.2768C17.0288 14.5568 16.5238 14.6118 15.9669 14.4168C15.6319 14.3349 15.4069 14.1949 15.2119 13.9711L12.2788 11.5393L12.4744 11.1224L12.5588 10.7843L15.7163 10.5068L16.8332 10.4774H16.8294ZM11.3019 12.5193L12.4744 13.7168L13.2 14.6118L13.34 14.8918C13.5907 15.3674 13.7307 15.8136 13.6719 16.3436C13.62 16.8455 13.4513 17.2093 13.115 17.3493C12.92 17.4893 12.695 17.4893 12.4744 17.4599C11.9438 17.323 11.5238 16.903 11.2175 16.233L10.8825 15.3111L10.4625 12.8793L10.9344 12.7136L11.2994 12.5186L11.3019 12.5193ZM8.28442 12.5743C8.56129 12.7143 8.8413 12.8543 9.15004 12.8799C9.20685 13.8972 9.2992 14.9122 9.42692 15.923V17.043L9.40129 17.3199C9.20317 17.8249 8.86817 18.2449 8.36629 18.4655C7.86567 18.7455 7.33442 18.8011 6.82942 18.6611C6.26942 18.5243 5.85254 18.1855 5.62879 17.7393C5.48879 17.4593 5.37442 17.1243 5.37442 16.7893L5.51754 16.1474C5.57317 15.8674 5.71254 15.5905 5.93754 15.3668L8.28442 12.5743Z"/>
</g>

</symbol><symbol id="icon-phone" viewBox="0 0 22 23">
<path d="M16.2314 11.2709C16.1464 11.1857 16.0454 11.1181 15.9342 11.072C15.823 11.0259 15.7037 11.0021 15.5834 11.0021C15.463 11.0021 15.3438 11.0259 15.2326 11.072C15.1213 11.1181 15.0203 11.1857 14.9353 11.2709L13.4741 12.7321C12.7967 12.5304 11.5326 12.0721 10.7314 11.2709C9.93027 10.4697 9.47194 9.20563 9.27027 8.52822L10.7314 7.06705C10.8166 6.982 10.8842 6.88097 10.9303 6.76977C10.9765 6.65856 11.0002 6.53936 11.0002 6.41897C11.0002 6.29858 10.9765 6.17937 10.9303 6.06817C10.8842 5.95696 10.8166 5.85594 10.7314 5.77088L7.06477 2.10422C6.97972 2.01902 6.8787 1.95142 6.76749 1.90531C6.65628 1.85919 6.53708 1.83545 6.41669 1.83545C6.2963 1.83545 6.17709 1.85919 6.06589 1.90531C5.95468 1.95142 5.85366 2.01902 5.7686 2.10422L3.2826 4.59022C2.93427 4.93855 2.7381 5.41705 2.74544 5.90563C2.76652 7.21097 3.1121 11.7448 6.68527 15.318C10.2584 18.8911 14.7923 19.2358 16.0985 19.2578H16.1242C16.6082 19.2578 17.0656 19.0671 17.4121 18.7206L19.8981 16.2346C19.9833 16.1496 20.0509 16.0486 20.097 15.9374C20.1431 15.8261 20.1669 15.7069 20.1669 15.5866C20.1669 15.4662 20.1431 15.347 20.097 15.2357C20.0509 15.1245 19.9833 15.0235 19.8981 14.9385L16.2314 11.2709ZM16.115 17.4235C14.971 17.4043 11.0569 17.0972 7.98144 14.0209C4.89594 10.9354 4.5971 7.00747 4.57877 5.88638L6.41669 4.04847L8.78719 6.41897L7.60194 7.60422C7.49419 7.71188 7.41498 7.84469 7.37144 7.99065C7.32791 8.13662 7.32144 8.29113 7.3526 8.44022C7.3746 8.54563 7.91269 11.0454 9.43435 12.5671C10.956 14.0887 13.4558 14.6268 13.5612 14.6488C13.7102 14.6808 13.8649 14.6749 14.0109 14.6315C14.157 14.5881 14.2899 14.5086 14.3972 14.4004L15.5834 13.2151L17.9539 15.5856L16.115 17.4235Z"/>
</symbol><symbol id="icon-plus" viewBox="0 0 25 26">
<path d="M11.7676 3.71338H13.2324C13.3626 3.71338 13.4277 3.77848 13.4277 3.90869V21.0962C13.4277 21.2264 13.3626 21.2915 13.2324 21.2915H11.7676C11.6374 21.2915 11.5723 21.2264 11.5723 21.0962V3.90869C11.5723 3.77848 11.6374 3.71338 11.7676 3.71338Z" fill="white"/>
<path d="M4.29688 11.5747H20.7031C20.8333 11.5747 20.8984 11.6398 20.8984 11.77V13.2349C20.8984 13.3651 20.8333 13.4302 20.7031 13.4302H4.29688C4.16667 13.4302 4.10156 13.3651 4.10156 13.2349V11.77C4.10156 11.6398 4.16667 11.5747 4.29688 11.5747Z" fill="white"/>
</symbol><symbol id="icon-skype" viewBox="0 0 20 21">
<path d="M15.0723 11.0962C15.1524 10.6567 15.1953 10.2075 15.1953 9.7583C15.1953 8.76221 15 7.79541 14.6153 6.88721C14.2442 6.0083 13.711 5.21924 13.0332 4.5415C12.3612 3.86772 11.5645 3.33107 10.6875 2.96143C9.77737 2.57666 8.81252 2.38135 7.81643 2.38135C7.34768 2.38135 6.87697 2.42627 6.41994 2.51416C5.78755 2.17905 5.0829 2.00339 4.36721 2.00244C3.20119 2.00244 2.10353 2.45752 1.27931 3.28174C0.872597 3.68636 0.550125 4.1676 0.330541 4.69762C0.110956 5.22764 -0.00138471 5.79593 1.28815e-05 6.36963C1.28815e-05 7.11182 0.191419 7.84229 0.548842 8.48682C0.476576 8.90479 0.437513 9.33252 0.437513 9.7583C0.437513 10.7544 0.632826 11.7212 1.01759 12.6294C1.38869 13.5083 1.91994 14.2974 2.59767 14.9751C3.27541 15.6528 4.06447 16.1841 4.94338 16.5552C5.85353 16.9399 6.81838 17.1353 7.81447 17.1353C8.24807 17.1353 8.68166 17.0962 9.10744 17.02C9.76174 17.3892 10.5 17.5864 11.2559 17.5864C12.4219 17.5864 13.5196 17.1333 14.3438 16.3071C15.17 15.4829 15.6231 14.3853 15.6231 13.2192C15.625 12.4771 15.4336 11.7446 15.0723 11.0962ZM7.84572 14.2778C5.22463 14.2778 4.05275 12.9888 4.05275 12.0239C4.05275 11.5278 4.41799 11.1821 4.92189 11.1821C6.04299 11.1821 5.75393 12.7935 7.84572 12.7935C8.91799 12.7935 9.50979 12.2114 9.50979 11.6157C9.50979 11.2583 9.33401 10.8599 8.62698 10.686L6.29494 10.104C4.41799 9.6333 4.07619 8.61768 4.07619 7.66455C4.07619 5.68408 5.94143 4.93994 7.69338 4.93994C9.30666 4.93994 11.209 5.83252 11.209 7.02002C11.209 7.52979 10.7676 7.82471 10.2637 7.82471C9.30666 7.82471 9.48244 6.50049 7.55471 6.50049C6.59768 6.50049 6.06838 6.93408 6.06838 7.55322C6.06838 8.17236 6.82424 8.36963 7.48049 8.52002L9.20705 8.90283C11.0977 9.32471 11.5762 10.4282 11.5762 11.4673C11.5762 13.0747 10.3399 14.2778 7.84572 14.2778Z"/>
</symbol><symbol id="icon-top" viewBox="0 0 64 64">
   
    <title>Button-circle-triangle-up</title>
    <desc>Created with Sketch.</desc>
    
    <g id="Page-1" stroke="none" stroke-width="1" fill-rule="evenodd" sketch:type="MSPage">
        <g id="Button-circle-triangle-up" sketch:type="MSLayerGroup" transform="translate(1.000000, 1.000000)" stroke="#6B6C6E" stroke-width="2">
            <circle id="Oval" sketch:type="MSShapeGroup" cx="31" cy="31" r="31"/>
            <path d="M31,5 C45.4,5 57,16.6 57,31" id="Shape" sketch:type="MSShapeGroup"/>
            <path d="M31,57 C16.6,57 5,45.4 5,31" id="Shape" sketch:type="MSShapeGroup"/>
            <path d="M42.3,37.9 C42.7,37.9 43.1,37.6 43.1,37.2 L32.7,21.7 C32.4,21.3 31.6,21 31.3,21 L31.3,21 C31.3,21 30,21.3 29.7,21.7 L19.1,37.2 C19.1,37.6 19.4,37.9 19.9,37.9 L42.3,37.9 L42.3,37.9 Z" id="Shape" sketch:type="MSShapeGroup"/>
        </g>
    </g>
</symbol><symbol id="icon-twitter" viewBox="0 0 45 45">
<path d="M22.5 0.1875C10.1783 0.1875 0.1875 10.1783 0.1875 22.5C0.1875 34.8217 10.1783 44.8125 22.5 44.8125C34.8217 44.8125 44.8125 34.8217 44.8125 22.5C44.8125 10.1783 34.8217 0.1875 22.5 0.1875ZM33.2229 17.0065C33.2379 17.2406 33.2379 17.4847 33.2379 17.7237C33.2379 25.0351 27.6697 33.457 17.4946 33.457C14.3569 33.457 11.4483 32.5456 8.99795 30.9768C9.44619 31.0266 9.87451 31.0465 10.3327 31.0465C12.9226 31.0465 15.3032 30.1699 17.2008 28.6857C14.7703 28.6359 12.7283 27.0422 12.0311 24.8508C12.8827 24.9753 13.6497 24.9753 14.5263 24.7512C13.2748 24.4969 12.15 23.8172 11.3428 22.8276C10.5357 21.838 10.0961 20.5995 10.0986 19.3225V19.2527C10.8308 19.6661 11.6924 19.9201 12.5938 19.955C11.836 19.4499 11.2145 18.7657 10.7845 17.9629C10.3545 17.1602 10.1291 16.2637 10.1285 15.353C10.1285 14.3221 10.3975 13.3808 10.8806 12.564C12.2696 14.2739 14.003 15.6725 15.9679 16.6687C17.9329 17.6649 20.0855 18.2365 22.2858 18.3463C21.5039 14.586 24.3129 11.543 27.6896 11.543C29.2834 11.543 30.7178 12.2104 31.7288 13.2861C32.9789 13.0521 34.1742 12.5839 35.24 11.9563C34.8267 13.2363 33.9601 14.3171 32.8096 14.9994C33.9252 14.8799 35.001 14.5711 35.9971 14.1378C35.245 15.2435 34.3037 16.2246 33.2229 17.0065Z"/>
</symbol><symbol id="icon-vk" viewBox="0 0 46 46">
<path d="M22.9999 0.919922C10.8053 0.919922 0.919922 10.8053 0.919922 22.9999C0.919922 35.1945 10.8053 45.0799 22.9999 45.0799C35.1945 45.0799 45.0799 35.1945 45.0799 22.9999C45.0799 10.8053 35.1945 0.919922 22.9999 0.919922ZM31.4915 25.8312C31.4915 25.8312 33.4442 27.7586 33.9249 28.6533C33.9387 28.6717 33.9456 28.6901 33.9502 28.6993C34.1457 29.0282 34.1917 29.2835 34.0951 29.4744C33.9341 29.7918 33.3821 29.9482 33.1935 29.962H29.7435C29.5043 29.962 29.0029 29.8999 28.3957 29.4813C27.9288 29.1547 27.4688 28.6188 27.0203 28.0967C26.351 27.3193 25.7714 26.6477 25.1872 26.6477C25.113 26.6476 25.0393 26.6592 24.9687 26.6822C24.5271 26.8248 23.9613 27.455 23.9613 29.134C23.9613 29.6584 23.5473 29.9597 23.2552 29.9597H21.6751C21.1369 29.9597 18.3332 29.7711 15.8492 27.1514C12.8086 23.9429 10.0716 17.5075 10.0486 17.4477C9.87612 17.0314 10.2326 16.8083 10.6213 16.8083H14.1058C14.5704 16.8083 14.7222 17.0912 14.828 17.3419C14.9522 17.634 15.4076 18.7955 16.1551 20.1019C17.3672 22.2317 18.1101 23.0965 18.7058 23.0965C18.8175 23.0952 18.9272 23.0668 19.0255 23.0137C19.8029 22.5813 19.658 19.8098 19.6235 19.2348C19.6235 19.1267 19.6212 17.9951 19.2233 17.4523C18.9381 17.059 18.4528 16.9095 18.1584 16.8543C18.2776 16.6899 18.4346 16.5566 18.6161 16.4656C19.1497 16.1988 20.1111 16.1597 21.0656 16.1597H21.5969C22.6319 16.1735 22.8987 16.2402 23.2736 16.3345C24.0326 16.5162 24.0487 17.0061 23.982 18.6828C23.9613 19.1589 23.9406 19.6971 23.9406 20.3319C23.9406 20.4699 23.9337 20.6171 23.9337 20.7735C23.9107 21.6268 23.8831 22.5951 24.4857 22.993C24.5643 23.0423 24.6551 23.0686 24.7479 23.0689C24.9572 23.0689 25.5874 23.0689 27.294 20.141C27.8203 19.1986 28.2777 18.2193 28.6625 17.2108C28.697 17.151 28.7982 16.967 28.9178 16.8957C29.0061 16.8507 29.104 16.8278 29.203 16.829H33.2993C33.7455 16.829 34.0514 16.8957 34.1089 17.0682C34.2101 17.3419 34.0905 18.1768 32.2206 20.7091L31.3857 21.8108C29.6906 24.0326 29.6906 24.1453 31.4915 25.8312Z"/>
</symbol></svg>